<svg width="212" height="212" viewBox="0 0 212 212" fill="none" xmlns="http://www.w3.org/2000/svg">
<g clip-path="url(#clip0_1_1000)">
<path fill-rule="evenodd" clip-rule="evenodd" d="M124.88 78.7224C143.407 83.749 162.015 92.2068 174.959 106.366C179.67 111.517 182.95 117.419 186.363 123.43C186.603 123.851 186.455 124.39 186.032 124.632C185.607 124.872 185.069 124.724 184.829 124.299C181.481 118.404 178.277 112.608 173.658 107.556C160.897 93.5979 142.522 85.3102 124.256 80.3792L124.158 80.6541C123.096 83.6414 119.601 86.1467 115.013 87.8982C108.437 90.4097 99.645 91.4637 93.3711 90.6941C90.5519 90.3477 88.2277 89.62 86.7685 88.5401C85.6303 87.6987 84.9761 86.6389 84.8822 85.3884C84.6839 82.7234 86.8438 80.5587 90.4271 79.0775C97.9205 75.9776 111.64 75.5677 117.588 76.9116C119.445 77.3319 121.311 77.7832 123.178 78.2705C123.379 77.7502 123.574 77.2398 123.741 76.7351C124.212 75.2954 124.457 73.8775 123.905 72.2192C123.043 69.6358 121.106 67.4852 118.742 65.6864C115.049 62.8816 110.304 60.9459 106.652 59.6868C86.3124 52.6758 68.5775 57.2403 54.052 64.9478C39.3838 72.7343 27.9626 83.7188 20.3948 89.4065C20.0061 89.6998 19.4541 89.6194 19.1608 89.2307C18.8675 88.842 18.9462 88.2885 19.3366 87.9967C26.9528 82.2718 38.4596 71.2278 53.2267 63.3913C68.1363 55.476 86.3469 50.8229 107.226 58.018C111.031 59.3293 115.964 61.3607 119.808 64.2817C122.469 66.305 124.608 68.7545 125.578 71.6621C126.449 74.2716 125.76 76.3929 124.88 78.7224ZM122.545 79.9275L122.497 80.065C121.569 82.6764 118.397 84.7191 114.384 86.25C108.065 88.6634 99.6172 89.6829 93.5853 88.942C91.5171 88.6893 89.7428 88.2326 88.4652 87.5341C87.412 86.9567 86.7133 86.2296 86.6425 85.2576C86.5713 84.3399 86.9593 83.5392 87.6485 82.8332C88.4562 82.0028 89.6529 81.306 91.0998 80.7066C98.3006 77.7286 111.484 77.3398 117.199 78.6317C118.974 79.0343 120.757 79.4645 122.545 79.9275Z" fill="black"/>
<path fill-rule="evenodd" clip-rule="evenodd" d="M186.099 126.949C186.305 126.623 186.447 126.1 186.593 125.537C186.941 124.195 187.138 122.6 187.261 121.851C187.342 121.37 187.797 121.047 188.277 121.126C188.758 121.207 189.083 121.66 189.002 122.142C188.85 123.058 188.584 125.184 188.095 126.69C187.831 127.497 187.481 128.141 187.1 128.48C186.452 129.059 185.583 128.978 184.622 128.017C183.487 126.88 181.884 124.239 179.408 123.216C178.959 123.032 178.744 122.513 178.931 122.065C179.117 121.614 179.632 121.4 180.083 121.586C182.443 122.563 184.147 124.799 185.371 126.223C185.604 126.493 185.913 126.781 186.099 126.949Z" fill="black"/>
</g>
<defs>
<clipPath id="clip0_1_1000">
<rect width="149.562" height="149.562" fill="white" transform="matrix(0.723792 0.690019 0.690019 -0.723792 0 108.262)"/>
</clipPath>
</defs>
</svg>
