<svg width="230" height="239" viewBox="0 0 230 239" fill="none" xmlns="http://www.w3.org/2000/svg">
<g clip-path="url(#clip0_1_983)" filter="url(#filter0_dd_1_983)">
<rect x="84" y="66.7344" width="73" height="61" rx="20" fill="black"/>
<path d="M84 88.3105C84 86.6537 85.3431 85.3105 87 85.3105H147.858C150.756 85.3105 151.97 89.0105 149.636 90.7272L88.7776 135.491C86.7965 136.949 84 135.534 84 133.075V88.3105Z" fill="black"/>
<g clip-path="url(#clip1_1_983)">
<path fill-rule="evenodd" clip-rule="evenodd" d="M127.548 99.9828C125.71 100.727 123.727 101.186 121.652 101.305C121.294 101.325 120.934 101.335 120.571 101.335C120.208 101.335 119.847 101.325 119.49 101.305C117.415 101.186 115.431 100.727 113.593 99.9823C109.736 98.4202 106.522 95.602 104.458 92.0349C107.674 86.475 113.686 82.7344 120.571 82.7344C127.456 82.7344 133.467 86.475 136.683 92.0349C134.62 95.6024 131.405 98.4209 127.548 99.9828Z" fill="white"/>
<path d="M113.593 101.43C113.148 101.25 112.712 101.054 112.286 100.841C110.9 101.818 109.728 103.034 108.846 104.421C110.345 106.78 112.681 108.643 115.485 109.675C116.82 110.168 118.262 110.471 119.771 110.55H121.342C122.85 110.471 125.5 111.965 121.652 115.735C124.456 114.702 130.767 106.78 132.267 104.421C131.387 103.038 130.22 101.825 128.839 100.85C128.417 101.059 127.987 101.253 127.548 101.431C125.71 102.175 123.726 102.634 121.652 102.753C121.294 102.773 120.934 102.784 120.571 102.784C120.208 102.784 119.847 102.773 119.489 102.753C117.414 102.634 115.43 102.175 113.593 101.43Z" fill="white"/>
<rect x="112.801" y="89.6558" width="15.573" height="5.5618" rx="2.7809" fill="#C54ED8"/>
<ellipse cx="120.556" cy="106.125" rx="1.01966" ry="1.01966" fill="#162550"/>
<ellipse cx="116.478" cy="106.125" rx="1.01966" ry="1.01966" fill="#162550"/>
<ellipse cx="124.636" cy="106.125" rx="1.01966" ry="1.01966" fill="#162550"/>
</g>
</g>
<defs>
<filter id="filter0_dd_1_983" x="0" y="0.734375" width="241" height="240" filterUnits="userSpaceOnUse" color-interpolation-filters="sRGB">
<feFlood flood-opacity="0" result="BackgroundImageFix"/>
<feColorMatrix in="SourceAlpha" type="matrix" values="0 0 0 0 0 0 0 0 0 0 0 0 0 0 0 0 0 0 127 0" result="hardAlpha"/>
<feMorphology radius="4" operator="erode" in="SourceAlpha" result="effect1_dropShadow_1_983"/>
<feOffset dy="18"/>
<feGaussianBlur stdDeviation="44"/>
<feColorMatrix type="matrix" values="0 0 0 0 0.0941176 0 0 0 0 0.152941 0 0 0 0 0.294118 0 0 0 0.14 0"/>
<feBlend mode="normal" in2="BackgroundImageFix" result="effect1_dropShadow_1_983"/>
<feColorMatrix in="SourceAlpha" type="matrix" values="0 0 0 0 0 0 0 0 0 0 0 0 0 0 0 0 0 0 127 0" result="hardAlpha"/>
<feMorphology radius="6" operator="erode" in="SourceAlpha" result="effect2_dropShadow_1_983"/>
<feOffset dy="8"/>
<feGaussianBlur stdDeviation="14"/>
<feColorMatrix type="matrix" values="0 0 0 0 0.0941176 0 0 0 0 0.152941 0 0 0 0 0.294118 0 0 0 0.12 0"/>
<feBlend mode="normal" in2="effect1_dropShadow_1_983" result="effect2_dropShadow_1_983"/>
<feBlend mode="normal" in="SourceGraphic" in2="effect2_dropShadow_1_983" result="shape"/>
</filter>
<clipPath id="clip0_1_983">
<rect width="73" height="72" fill="white" transform="translate(84 66.7344)"/>
</clipPath>
<clipPath id="clip1_1_983">
<rect width="32.2252" height="33" fill="white" transform="translate(104 82.7344)"/>
</clipPath>
</defs>
</svg>
