<svg width="40" height="41" viewBox="0 0 40 41" fill="none" xmlns="http://www.w3.org/2000/svg">
<path d="M35.375 8.64188V33.2936C35.375 34.2274 35.0481 35.0211 34.3945 35.6748C33.7409 36.3284 32.9471 36.6552 32.0134 36.6552H26.0605V24.2593H30.2625L30.8928 19.4971H26.0605V16.4856C26.0605 15.7386 26.2006 15.1783 26.4807 14.8048C26.8542 14.3846 27.4845 14.1745 28.3716 14.1745H30.8928V9.97251C29.9124 9.83245 28.6985 9.76241 27.2511 9.76241C25.3835 9.76241 23.9012 10.311 22.804 11.4082C21.7068 12.5054 21.1582 14.0345 21.1582 15.9954V19.4971H16.8862V24.2593H21.1582V36.6552H7.3616C6.42783 36.6552 5.63411 36.3284 4.98047 35.6748C4.32682 35.0211 4 34.2274 4 33.2936V8.64188C4 7.7081 4.32682 6.91439 4.98047 6.26074C5.63411 5.6071 6.42783 5.28027 7.3616 5.28027H32.0134C32.9471 5.28027 33.7409 5.6071 34.3945 6.26074C35.0481 6.91439 35.375 7.7081 35.375 8.64188Z" fill="#F5F5F5"/>
</svg>
