<svg width="39" height="41" viewBox="0 0 39 41" fill="none" xmlns="http://www.w3.org/2000/svg">
<path fill-rule="evenodd" clip-rule="evenodd" d="M29.5109 10.2002C29.1973 9.87858 28.826 9.71777 28.3969 9.71777H9.38442C8.95532 9.71777 8.58398 9.87858 8.27041 10.2002C7.95684 10.5218 7.80005 10.9027 7.80005 11.3428V30.8427C7.80005 31.2828 7.95684 31.6637 8.27041 31.9853C8.58398 32.3069 8.95532 32.4677 9.38442 32.4677H28.3969C28.826 32.4677 29.1973 32.3069 29.5109 31.9853C29.8245 31.6637 29.9812 31.2828 29.9812 30.8427V11.3428C29.9812 10.9027 29.8245 10.5218 29.5109 10.2002ZM14.5336 29.2177H11.2163V18.3506H14.5336V29.2177ZM12.8502 16.8779C13.3784 16.8779 13.8322 16.6833 14.2118 16.2939C14.5914 15.9046 14.7812 15.4476 14.7812 14.9228C14.7812 14.3981 14.5914 13.9411 14.2118 13.5517C13.8322 13.1624 13.3784 12.9678 12.8502 12.9678C12.3221 12.9678 11.8765 13.1624 11.5134 13.5517C11.1503 13.9411 10.9688 14.3981 10.9688 14.9228C10.9688 15.4476 11.1503 15.9046 11.5134 16.2939C11.8765 16.6833 12.3221 16.8779 12.8502 16.8779ZM26.8125 23.2763V29.2177H23.5447V23.9365C23.5447 23.0563 23.4622 22.4131 23.2972 22.0068C23.0661 21.3636 22.571 21.042 21.8118 21.042C21.0527 21.042 20.508 21.3297 20.1779 21.9052C19.9469 22.3453 19.8314 22.9886 19.8314 23.8349V29.2177H16.5636V18.3506H19.7323V19.8232H19.7819C20.0129 19.3493 20.376 18.9599 20.8711 18.6553C21.4653 18.2829 22.1419 18.0967 22.9011 18.0967C24.4194 18.0967 25.4922 18.5875 26.1193 19.5693C26.5814 20.348 26.8125 21.5836 26.8125 23.2763Z" fill="#F5F5F5"/>
</svg>
