<svg width="39" height="41" viewBox="0 0 39 41" fill="none" xmlns="http://www.w3.org/2000/svg">
<path d="M35.5937 20.9678C35.5937 23.9029 34.8824 26.6191 33.4599 29.1162C32.0373 31.6133 30.1158 33.5956 27.6953 35.0632C25.2748 36.5308 22.642 37.2646 19.7969 37.2646C18.1832 37.2646 16.6332 37.0237 15.147 36.5418C16.1661 34.7894 16.8031 33.3656 17.0579 32.2704L18.077 28.3933C18.3318 28.919 18.7989 29.3571 19.4784 29.7076C20.1578 30.0581 20.9009 30.2333 21.7078 30.2333C23.2365 30.2333 24.6272 29.7843 25.8799 28.8862C27.1326 27.9881 28.1093 26.7724 28.81 25.2391C29.5107 23.7058 29.861 22.0301 29.861 20.2121C29.861 18.394 29.4363 16.7621 28.587 15.3164C27.7378 13.8707 26.57 12.7427 25.0837 11.9322C23.5974 11.1217 21.9413 10.7165 20.1153 10.7165C17.9496 10.7165 16.0387 11.1765 14.3826 12.0965C12.8963 12.9727 11.7392 14.1664 10.9111 15.6779C10.0831 17.1893 9.66903 18.8211 9.66903 20.5735C9.66903 21.8439 9.9769 23.1034 10.5926 24.352C11.2084 25.6005 11.9834 26.4439 12.9176 26.8819C13.2148 27.0134 13.3847 26.9477 13.4272 26.6848L13.873 24.8448C13.9155 24.6696 13.873 24.5163 13.7456 24.3848C13.4059 23.9468 13.1299 23.3882 12.9176 22.7092C12.7053 22.0301 12.5991 21.3401 12.5991 20.6392C12.5991 19.4125 12.8857 18.2626 13.459 17.1893C14.0323 16.1159 14.8497 15.2507 15.9113 14.5936C17.0154 13.8926 18.2894 13.5422 19.7332 13.5422C21.6865 13.5422 23.279 14.1664 24.5104 15.415C25.7419 16.6635 26.3577 18.2516 26.3577 20.1792C26.3577 22.3696 25.8799 24.1658 24.9245 25.5677C23.969 26.9696 22.7906 27.6705 21.3893 27.6705C20.5825 27.6705 19.9455 27.3748 19.4784 26.7834C19.0113 26.192 18.8626 25.502 19.0325 24.7134C19.1174 24.2315 19.3085 23.5306 19.6058 22.6106C20.0729 20.9897 20.3064 19.8616 20.3064 19.2264C20.3064 18.5911 20.1366 18.0654 19.7969 17.6492C19.4571 17.2331 18.9688 17.025 18.3318 17.025C17.525 17.025 16.8456 17.3973 16.2935 18.1421C15.7415 18.8868 15.4655 19.8287 15.4655 20.9678C15.4655 21.9316 15.6141 22.742 15.9113 23.3991L14.1278 31.4819C13.873 32.5771 13.8518 34.1323 14.0641 36.1475C11.0491 34.9647 8.61803 32.9933 6.77082 30.2333C4.92361 27.4734 4 24.3848 4 20.9678C4 18.0326 4.71128 15.3164 6.13385 12.8193C7.55642 10.3222 9.47794 8.33988 11.8984 6.87229C14.3189 5.4047 16.9517 4.6709 19.7969 4.6709C22.642 4.6709 25.2748 5.4047 27.6953 6.87229C30.1158 8.33988 32.0373 10.3222 33.4599 12.8193C34.8824 15.3164 35.5937 18.0326 35.5937 20.9678Z" fill="#F5F5F5"/>
</svg>
