<svg width="39" height="41" viewBox="0 0 39 41" fill="none" xmlns="http://www.w3.org/2000/svg">
<path fill-rule="evenodd" clip-rule="evenodd" d="M31.6646 19.4168C31.1695 18.7397 30.4764 18.4012 29.5852 18.4012C28.859 18.4351 28.2318 18.7059 27.7037 19.2137C26.8125 18.6043 25.7893 18.105 24.634 17.7157C23.4787 17.3263 22.2409 17.1148 20.9206 17.0809L22.3069 10.7333L26.664 11.7489C26.664 12.2905 26.8538 12.756 27.2334 13.1454C27.6129 13.5347 28.075 13.7293 28.6197 13.7293C29.1643 13.7293 29.6264 13.5347 30.006 13.1454C30.3856 12.756 30.5754 12.2821 30.5754 11.7235C30.5754 11.1649 30.3856 10.6909 30.006 10.3016C29.6264 9.91229 29.1561 9.71763 28.5949 9.71763C28.2318 9.71763 27.8935 9.8192 27.5799 10.0223C27.2664 10.2254 27.0271 10.4963 26.862 10.8348L22.0594 9.71763C21.9274 9.68378 21.8118 9.70917 21.7128 9.79381C21.6138 9.87844 21.5478 9.97154 21.5148 10.0731L19.9799 17.0809C17.3723 17.1825 15.1278 17.9103 13.2463 19.2645C12.7182 18.7228 12.0911 18.452 11.3649 18.452C10.4737 18.4181 9.78052 18.7397 9.2854 19.4168C8.79028 20.0939 8.61699 20.8387 8.76553 21.6512C8.91406 22.4637 9.40093 23.09 10.2261 23.5301C10.1271 23.9025 10.0776 24.3087 10.0776 24.7488C10.0776 26.1707 10.5479 27.4656 11.4887 28.6336C12.4294 29.8016 13.6919 30.7326 15.2763 31.4266C16.8607 32.1206 18.6018 32.4676 20.4998 32.4676C22.3977 32.4676 24.1389 32.1206 25.7232 31.4266C27.3076 30.7326 28.5702 29.8016 29.5109 28.6336C30.4516 27.4656 30.922 26.1707 30.922 24.7488C30.922 24.2749 30.8725 23.8517 30.7734 23.4793C31.5656 23.0731 32.036 22.4637 32.1845 21.6512C32.333 20.8387 32.1598 20.0939 31.6646 19.4168ZM14.7812 25.1805C14.3851 24.7912 14.187 24.3257 14.187 23.784C14.187 23.2085 14.3851 22.7261 14.7812 22.3367C15.1773 21.9474 15.6394 21.7528 16.1675 21.7528C16.6956 21.7528 17.1495 21.9474 17.5291 22.3367C17.9087 22.7261 18.0985 23.2 18.0985 23.7586C18.0985 24.3172 17.9087 24.7912 17.5291 25.1805C17.1495 25.5698 16.6956 25.7645 16.1675 25.7645C15.6394 25.7645 15.1773 25.5698 14.7812 25.1805ZM24.832 28.5067C24.9311 28.4389 24.9806 28.3374 24.9806 28.202C24.9806 28.0665 24.9311 27.9481 24.832 27.8465C24.733 27.7449 24.6175 27.6942 24.4855 27.6942C24.3534 27.6942 24.2379 27.7449 24.1389 27.8465C23.6768 28.3205 22.9423 28.6421 21.9356 28.8113C20.9289 28.9806 19.9304 28.9721 18.9402 28.7859C17.9499 28.5997 17.2238 28.2866 16.7617 27.8465C16.6956 27.7449 16.5966 27.6942 16.4646 27.6942C16.3326 27.6942 16.217 27.7449 16.118 27.8465C16.019 27.9481 15.9695 28.0665 15.9695 28.202C15.9695 28.3374 16.019 28.4389 16.118 28.5067C16.7121 29.116 17.5868 29.5307 18.7421 29.7508C19.8974 29.9708 21.0527 29.9708 22.2079 29.7508C23.3632 29.5307 24.2379 29.116 24.832 28.5067ZM26.1689 25.1805C25.7728 25.5698 25.3107 25.7645 24.7825 25.7645C24.2544 25.7645 23.8006 25.5698 23.421 25.1805C23.0414 24.7912 22.8516 24.3257 22.8516 23.784C22.8516 23.2423 23.0414 22.7684 23.421 22.3621C23.8006 21.9559 24.2544 21.7528 24.7825 21.7528C25.3107 21.7528 25.7728 21.9474 26.1689 22.3367C26.5649 22.7261 26.763 23.2 26.763 23.7586C26.763 24.3172 26.5649 24.7912 26.1689 25.1805Z" fill="#F5F5F5"/>
</svg>
