<svg width="39" height="41" viewBox="0 0 39 41" fill="none" xmlns="http://www.w3.org/2000/svg">
<path d="M32.6875 13.3271C32.7291 13.5231 32.75 13.8414 32.75 14.2822C32.75 17.8087 32.0208 21.2127 30.5625 24.4942C29.0625 27.9717 26.9583 30.7389 24.25 32.796C21.2916 35.098 17.8958 36.249 14.0625 36.249C10.3958 36.249 7.04166 35.098 4 32.796C4.45833 32.845 4.97917 32.8695 5.5625 32.8695C8.60416 32.8695 11.3333 31.7675 13.75 29.5635C12.2917 29.5635 11.0104 29.0614 9.90624 28.0574C8.80208 27.0533 8.04166 25.7921 7.625 24.2738C8.04166 24.3228 8.4375 24.3473 8.8125 24.3473C9.39583 24.3473 9.97916 24.2738 10.5625 24.1269C9.06249 23.735 7.8125 22.8289 6.8125 21.4086C5.8125 19.9882 5.3125 18.3719 5.3125 16.5597V16.4128C6.22916 17.0495 7.20833 17.3923 8.25 17.4413C7.375 16.7066 6.66666 15.7761 6.125 14.6496C5.58333 13.5231 5.3125 12.2864 5.3125 10.9394C5.3125 9.59255 5.625 8.30686 6.25 7.08241C7.875 9.48234 9.86458 11.3925 12.2187 12.8129C14.5729 14.2332 17.0833 15.0169 19.75 15.1638C19.6667 14.5761 19.625 13.9883 19.625 13.4006C19.625 12.0292 19.9167 10.7435 20.5 9.54357C21.0833 8.3436 21.875 7.40076 22.875 6.71507C23.875 6.02937 24.9583 5.68652 26.125 5.68652C27.0833 5.68652 27.9687 5.90693 28.7812 6.34773C29.5937 6.78854 30.3125 7.37628 30.9375 8.11095C32.4375 7.7681 33.8333 7.15587 35.125 6.27426C34.625 8.08646 33.6666 9.50683 32.25 10.5354C33.5 10.3395 34.75 9.92315 36 9.28643C35.0833 10.8537 33.9791 12.2006 32.6875 13.3271Z" fill="#F5F5F5"/>
</svg>
